<?xml version="1.0" encoding="UTF-8"?>
<svg width="162.46" height="262.76" enable-background="new 0 0 162.456 262.757" viewBox="0 0 162.456 262.757" xmlns="http://www.w3.org/2000/svg">
 <defs>
  <radialGradient id="i" cx="81.863" cy="255.78" r="11.44" gradientUnits="userSpaceOnUse">
   <stop stop-color="#cfcfcf" offset="0"/>
   <stop stop-color="#a8a8a8" offset="1"/>
  </radialGradient>
  <radialGradient id="h" cx="81.228" cy="102.84" r="92.666" gradientUnits="userSpaceOnUse">
   <stop stop-color="#fff" offset="0"/>
   <stop stop-color="#cdcdcd" offset="1"/>
  </radialGradient>
  <radialGradient id="g" cx="93.032" cy="205.68" r="0" gradientUnits="userSpaceOnUse">
   <stop stop-color="#fff" offset=".3315"/>
   <stop stop-color="#5f5f5f" offset="1"/>
  </radialGradient>
  <radialGradient id="f" cx="81.228" cy="210.36" r="20.899" gradientUnits="userSpaceOnUse">
   <stop stop-color="#fff" offset="0"/>
   <stop stop-color="#818181" offset="1"/>
  </radialGradient>
  <radialGradient id="e" cx="80.594" cy="219.56" r="21.209" gradientUnits="userSpaceOnUse">
   <stop stop-color="#fff" offset=".3315"/>
   <stop stop-color="#a1a1a1" offset="1"/>
  </radialGradient>
  <radialGradient id="d" cx="80.594" cy="228.44" r="21.209" gradientUnits="userSpaceOnUse">
   <stop stop-color="#fff" offset=".3315"/>
   <stop stop-color="#a1a1a1" offset="1"/>
  </radialGradient>
  <radialGradient id="c" cx="80.594" cy="237.33" r="21.209" gradientUnits="userSpaceOnUse">
   <stop stop-color="#fff" offset=".3315"/>
   <stop stop-color="#a1a1a1" offset="1"/>
  </radialGradient>
  <radialGradient id="b" cx="80.594" cy="246.21" r="21.209" gradientUnits="userSpaceOnUse">
   <stop stop-color="#fff" offset=".3315"/>
   <stop stop-color="#a1a1a1" offset="1"/>
  </radialGradient>
  <radialGradient id="a" cx="145.56" cy="88.878" r="24.964" gradientUnits="userSpaceOnUse">
   <stop stop-color="#cfcfcf" offset="0"/>
   <stop stop-color="#a8a8a8" offset="1"/>
  </radialGradient>
 </defs>
 <path d="m72.344 256.41h19.038v6.346h-19.038z" fill="#6e6e6e"/>
 <path d="m65.998 252.6h31.729v6.346h-31.729z" fill="url(#i)"/>
 <path d="m162.46,71.595c0-39.538-36.37-71.595-81.231-71.595s-81.229,32.057-81.229,71.595c0,15.627 5.741,30.04 15.376,41.81 1.14,1.602 33.272,47.059 36,66.235 2.774,19.529 2.774,24.734 2.774,24.734l15.3.516-.027.788 11.805-.396 11.804.396-.024-.788 15.3-.516s0-5.205 2.771-24.734c2.731-19.177 34.857-64.634 35.998-66.235 9.64-11.76 15.38-26.178 15.38-41.805z" fill="url(#h)"/>
 <g fill="none" opacity=".39" stroke="#6d6868" stroke-width=".75">
  <path d="m79.959 93.955-5.077 114.22"/>
  <path d="m83.767 93.955 2.538 114.22"/>
 </g>
 <path d="m93.032 205.68" fill="url(#g)"/>
 <g fill="#bcbcbc">
  <path d="m81.229,0-.437,3.277 2.102,15.795c-.733.134-1.383.297-2.102.436 94.748,18.448 42.319,89.676 42.319,89.676l-30.079,96.493 15.275-1.304c-7.194-21.576 30.034-81.228 30.034-81.228 72.35-109.14-57.111-123.14-57.111-123.14z" opacity=".26"/>
  <path d="m80.792,3.277-.437-3.277s-129.46,13.996-57.113,123.15c0,0 37.228,59.651 30.036,81.228l15.272,1.304-30.078-96.493s-52.429-71.228 42.319-89.676c-.719-.139-1.368-.302-2.103-.436l2.104-15.801z" opacity=".26"/>
  <path d="m80.792,3.277-2.103,15.795c.734.134 1.384.297 2.103.436 .719-.139 1.368-.302 2.102-.436l-2.102-15.795z" opacity=".26"/>
  <path d="m80.792,3.277-2.103,15.795c.734.134 1.384.297 2.103.436 .719-.139 1.368-.302 2.102-.436l-2.102-15.795z" opacity=".26"/>
 </g>
 <g opacity=".54">
  <path d="m44.699 12.747s-57.345 43.39-32.667 87.051c20.216 40.312-19.683-38.855 32.667-87.051z" fill="#bcbcbc"/>
 </g>
 <path d="m109.78 210.36c0 4.204-3.411 7.615-7.615 7.615h-41.874c-4.206 0-7.615-3.411-7.615-7.615s3.409-7.615 7.615-7.615h41.884c4.2 0 7.61 3.41 7.61 7.62z" fill="url(#f)"/>
 <path d="m109.78 204.01h-57.109" fill="none" stroke="#6d6868" stroke-width=".75"/>
 <path d="m50.768 216.39h59.652v6.346h-59.652z" fill="url(#e)"/>
 <path d="m54.575 224.64h53.305" fill="none" stroke="#afafaf" stroke-width=".75"/>
 <path d="m50.768 225.27h59.652v6.346h-59.652z" fill="url(#d)"/>
 <path d="m54.575 233.52h53.305" fill="none" stroke="#afafaf" stroke-width=".75"/>
 <path d="m50.768 234.16h59.652v6.346h-59.652z" fill="url(#c)"/>
 <path d="m54.575 242.4h53.305" fill="none" stroke="#afafaf" stroke-width=".75"/>
 <path d="m50.768 243.04h59.652v6.346h-59.652z" fill="url(#b)"/>
 <path d="m54.575 251.29h53.305" fill="none" stroke="#afafaf" stroke-width=".75"/>
 <path d="m70.993,101.3c4.583,7.045 12.015,7.045 16.601,0 3.669-5.637 3.669-14.773 0-20.411-2.935-4.506-7.694-4.506-10.624,0-2.348,3.609-2.348,9.455 0,13.06 1.879,2.885 4.923,2.89 6.797.005" fill="none" stroke="#afafaf" stroke-width=".5"/>
 <path d="m152.96 54.972s10.313 42.533-17.809 67.639c0 0 18.72-61.228 17.81-67.638z" fill="url(#a)" opacity=".54"/>
</svg>
